# xmcd CD database file
# Copyright (C) 1996 Ti Kan
#
# Track frame offsets:
# 	150
# 	13117
# 	21987
# 	47535
# 	59167
# 	75465
# 	91927
# 	105625
# 	122787
# 	134657
# 	145605
# 	155915
# 	168797
# 	178257
# 	196047
# 	220085
# 	232830
# 	245737
# 	258587
# 	273447
# 	289687
# 	307420
# 	332352
#
# Disc length: 4660 seconds
#
# Revision: 1
# Processed by: cddbd v1.4b41PL1 Copyright (c) Steve Scherf et al.
# Submitted via: DiscPlay 3.4.1
#
DISCID=50123217
DTITLE=Kris Kristofferson - Live At The Philharmonic
DYEAR=1900
DGENRE=
TTITLE0=Late John Garfield Blues
TTITLE1=Jesus Was A Capricorn (Owed to John Prine)
TTITLE2=Nobody Wins
TTITLE3=Jessie Younger
TTITLE4=Loving Her Was Easier(Than Anything I'll Ever Do Again)
TTITLE5=Late Again (Gettin' Over You)
TTITLE6=Out Of Mind, Out Of Sight
TTITLE7=Sugar Man
TTITLE8=Billy Dee
TTITLE9=The Law Is For Protection Of The People
TTITLE10=For The Good Times
TTITLE11=Sunday Mornin' Comin' Down
TTITLE12=Okie From Muskogee
TTITLE13=Border Lord
TTITLE14=Funny How Time Slips Away/Willie Nelson
TTITLE15=Me And Paul/Willie Nelson
TTITLE16=Mountain Dew/Willie Nelson
TTITLE17=The Pilgrim - Chapter 33
TTITLE18=Rainbow Road
TTITLE19=It Sure Was (Love)/Kris And Rita Coolidge
TTITLE20=Help Me/Larry Gatlin And Kris
TTITLE21=Me And Bobby Mcgee/Kris And Rita
TTITLE22=Whiskey, Whiskey/Kris And Rita
EXTD=
EXTT0=
EXTT1=
EXTT2=
EXTT3=
EXTT4=
EXTT5=
EXTT6=
EXTT7=
EXTT8=
EXTT9=
EXTT10=
EXTT11=
EXTT12=
EXTT13=
EXTT14=Night Life/Willie Nelson
EXTT15=
EXTT16=
EXTT17=
EXTT18=
EXTT19=
EXTT20=
EXTT21=
EXTT22=
PLAYORDER=
